<?xml version="1.0" encoding="UTF-8" standalone="no"?>
<!-- Created with Inkscape (http://www.inkscape.org/) -->

<svg
   xmlns:dc="http://purl.org/dc/elements/1.1/"
   xmlns:cc="http://creativecommons.org/ns#"
   xmlns:rdf="http://www.w3.org/1999/02/22-rdf-syntax-ns#"
   xmlns:svg="http://www.w3.org/2000/svg"
   xmlns="http://www.w3.org/2000/svg"
   xmlns:sodipodi="http://sodipodi.sourceforge.net/DTD/sodipodi-0.dtd"
   xmlns:inkscape="http://www.inkscape.org/namespaces/inkscape"
   id="svg2"
   version="1.1"
   inkscape:version="0.47 r22583"
   width="321"
   height="322"
   sodipodi:docname="alembic.svg">
  <metadata
     id="metadata8">
    <rdf:RDF>
      <cc:Work
         rdf:about="">
        <dc:format>image/svg+xml</dc:format>
        <dc:type
           rdf:resource="http://purl.org/dc/dcmitype/StillImage" />
        <dc:title></dc:title>
      </cc:Work>
    </rdf:RDF>
  </metadata>
  <defs
     id="defs6">
    <inkscape:perspective
       sodipodi:type="inkscape:persp3d"
       inkscape:vp_x="0 : 0.5 : 1"
       inkscape:vp_y="0 : 1000 : 0"
       inkscape:vp_z="1 : 0.5 : 1"
       inkscape:persp3d-origin="0.5 : 0.33333333 : 1"
       id="perspective10" />
  </defs>
  <sodipodi:namedview
     pagecolor="#ffffff"
     bordercolor="#666666"
     borderopacity="1"
     objecttolerance="10"
     gridtolerance="10"
     guidetolerance="10"
     inkscape:pageopacity="0"
     inkscape:pageshadow="2"
     inkscape:window-width="1359"
     inkscape:window-height="1168"
     id="namedview4"
     showgrid="false"
     inkscape:zoom="1.5587692"
     inkscape:cx="53.212957"
     inkscape:cy="151.91676"
     inkscape:window-x="0"
     inkscape:window-y="0"
     inkscape:window-maximized="0"
     inkscape:current-layer="svg2" />
  <path
     id="path2812"
     style="fill:#0d0d0d"
     d="m 260.49435,102.28874 c 0.005,-0.70709 -2.06908,-4.164972 -4.60693,-7.684197 -6.65045,-9.222121 -14.01647,-13.718111 -23.80506,-14.529853 -7.2886,-0.604425 -8.69975,-0.226085 -12.19564,3.269807 -2.21388,2.213878 -3.95332,5.70685 -3.95332,7.938646 0,4.532689 6.19445,11.061817 11.26912,11.878017 6.6804,1.07443 33.28467,0.37725 33.29183,-0.87242 z M 133.45765,312.71579 C 102.03464,306.72367 76.159626,293.47044 54.016629,272.02595 33.745733,252.3945 20.173806,230.07285 12.128934,203.13355 6.7383812,185.08258 5.2518435,153.23473 9.0954608,138.14434 12.102715,126.33763 19.913511,108.95327 22.211023,108.95327 c 2.250285,0 2.068707,1.32128 -1.603752,11.66989 -4.469034,12.59324 -5.66683,40.04996 -2.474417,56.71942 2.661297,13.89609 4.973653,20.74732 7.00245,20.74732 0.760519,0 1.788173,-1.90184 2.28365,-4.22631 1.382077,-6.48374 6.60178,-13.91604 12.148199,-17.29773 6.566142,-4.00344 16.58127,-4.02351 21.359532,-0.0429 l 3.628136,3.02255 -3.507248,0.0511 c -5.771551,0.084 -13.363379,3.97559 -16.199075,8.30342 -10.222249,15.60112 -3.675903,42.8313 15.351908,63.85772 8.258247,9.12564 18.318744,16.63768 20.013,14.94342 0.493325,-0.49333 -0.661009,-4.51854 -2.565199,-8.94495 -6.723713,-15.62971 -2.498775,-37.29547 9.447868,-48.44927 4.837198,-4.51618 16.353665,-9.48811 24.593165,-10.61747 18.0754,-2.4775 35.08643,10.95727 35.08643,27.71015 0,6.29535 -2.60163,12.67481 -5.64527,13.84277 -2.36928,0.90917 -2.85813,-0.10037 -4.33746,-8.95761 -1.25821,-7.53334 -7.72167,-14.18696 -15.13192,-15.57713 -7.54538,-1.41551 -19.04544,4.23739 -23.126607,11.368 -8.664745,15.13904 4.767987,41.7151 25.783317,51.01118 17.48061,7.73251 42.90457,9.81388 65.96996,5.40074 10.97129,-2.09915 27.18254,-8.84057 27.18254,-11.30381 0,-0.63762 -4.151,-1.94819 -9.22448,-2.91236 -19.01763,-3.61417 -32.62039,-13.78422 -40.84692,-30.53911 -3.94809,-8.04103 -4.48635,-10.79681 -4.48635,-22.96886 0,-11.39511 0.63327,-15.11745 3.595,-21.13157 5.26034,-10.68167 15.68992,-20.60864 27.41835,-26.09703 21.98418,-10.28765 44.88591,-4.29323 54.20008,14.18657 5.97694,11.85857 4.93906,23.51444 -2.78124,31.23474 -3.69739,3.69739 -6.25582,4.74699 -12.91744,5.29943 -9.02349,0.7483 -14.99207,-1.41197 -20.33955,-7.3617 l -3.07005,-3.41579 9.53263,1.09567 c 8.8918,1.02202 9.79578,0.83252 13.44733,-2.81903 5.42172,-5.42171 5.04575,-10.91495 -1.17266,-17.13335 -18.276,-18.27599 -49.76166,4.92322 -42.69892,31.46138 4.90872,18.44447 29.09875,28.95943 51.58423,22.42273 7.15165,-2.07906 10.73218,-4.37374 17.70557,-11.34713 11.04908,-11.04908 14.62302,-20.39289 14.50059,-37.91066 -0.13678,-19.57789 -8.21411,-32.99138 -25.51521,-42.37173 -9.48644,-5.14336 -10.14599,-5.26933 -27.39411,-5.23119 -20.91294,0.0462 -27.12727,2.04286 -48.43699,15.56272 -21.39352,13.57303 -28.64094,16.4092 -43.77331,17.13008 C 95.783453,180.81507 62.961396,163.55512 49.611375,138.74861 38.011134,117.19347 37.813727,88.048914 49.112901,65.153372 56.265116,50.660806 65.957632,40.076907 81.622856,29.653634 106.82433,12.885145 130.79813,6.6603227 165.21774,7.9481334 c 13.86216,0.5186537 24.66187,1.8211733 32.54321,3.9249436 57.55591,15.363415 99.46204,58.536117 112.87905,116.290663 4.19039,18.03785 3.85378,50.61069 -0.71374,69.06543 -6.63775,26.81953 -21.83112,53.52105 -41.60714,73.1223 -19.20876,19.03901 -41.68191,31.99658 -68.18146,39.31206 -17.67889,4.88042 -49.4633,6.33536 -66.68001,3.05226 z" />
</svg>
